<svg width="20" height="20" viewBox="0 0 20 20" fill="none" xmlns="http://www.w3.org/2000/svg">
<path d="M19.1282 16.763C19.7935 17.4282 19.7935 18.463 19.1282 19.1282C18.7956 19.4608 18.3891 19.6087 17.9456 19.6087C17.5022 19.6087 17.0956 19.4608 16.763 19.1282L9.99998 12.3652L3.23693 19.1282C2.90433 19.4608 2.4978 19.6087 2.05432 19.6087C1.61085 19.6087 1.20432 19.4608 0.871716 19.1282C0.206498 18.463 0.206498 17.4282 0.871716 16.763L7.63476 9.99998L0.871716 3.23693C0.206498 2.57172 0.206498 1.53693 0.871716 0.871716C1.53693 0.206498 2.57172 0.206498 3.23693 0.871716L9.99998 7.63476L16.763 0.871716C17.4282 0.206498 18.463 0.206498 19.1282 0.871716C19.7935 1.53693 19.7935 2.57172 19.1282 3.23693L12.3652 9.99998L19.1282 16.763Z" fill="white"/>
</svg>
