<svg width="20" height="24" viewBox="0 0 20 24" fill="none" xmlns="http://www.w3.org/2000/svg">
<path d="M2.50055 4.65984L2.5 16.6875C2.5 19.1728 4.43413 21.2063 6.8793 21.365L7.1875 21.375L15.4645 21.3763C15.078 22.468 14.0366 23.25 12.8125 23.25H6.25C3.1434 23.25 0.625 20.7316 0.625 17.625V7.3125C0.625 6.08772 1.40789 5.04578 2.50055 4.65984ZM16.5625 0.75C18.1158 0.75 19.375 2.0092 19.375 3.5625V16.6875C19.375 18.2408 18.1158 19.5 16.5625 19.5H7.1875C5.6342 19.5 4.375 18.2408 4.375 16.6875V3.5625C4.375 2.0092 5.6342 0.75 7.1875 0.75H16.5625ZM16.5625 2.625H7.1875C6.66973 2.625 6.25 3.04473 6.25 3.5625V16.6875C6.25 17.2053 6.66973 17.625 7.1875 17.625H16.5625C17.0803 17.625 17.5 17.2053 17.5 16.6875V3.5625C17.5 3.04473 17.0803 2.625 16.5625 2.625Z" fill="white"/>
</svg>
