<svg width="22" height="12" viewBox="0 0 22 12" fill="none" xmlns="http://www.w3.org/2000/svg">
<path d="M6.66669 5.99992C6.66669 6.28724 6.78082 6.56279 6.98399 6.76595C7.18715 6.96911 7.4627 7.08325 7.75002 7.08325H14.25C14.5373 7.08325 14.8129 6.96911 15.0161 6.76595C15.2192 6.56279 15.3334 6.28724 15.3334 5.99992C15.3334 5.7126 15.2192 5.43705 15.0161 5.23389C14.8129 5.03072 14.5373 4.91658 14.25 4.91658H7.75002C7.4627 4.91658 7.18715 5.03072 6.98399 5.23389C6.78082 5.43705 6.66669 5.7126 6.66669 5.99992ZM8.83335 9.24992H5.58335C4.7214 9.24992 3.89475 8.90751 3.28526 8.29802C2.67576 7.68852 2.33335 6.86187 2.33335 5.99992C2.33335 5.13796 2.67576 4.31131 3.28526 3.70182C3.89475 3.09233 4.7214 2.74992 5.58335 2.74992H8.83335C9.12067 2.74992 9.39622 2.63578 9.59939 2.43262C9.80255 2.22945 9.91669 1.9539 9.91669 1.66659C9.91669 1.37927 9.80255 1.10372 9.59939 0.900553C9.39622 0.697389 9.12067 0.583252 8.83335 0.583252H5.58335C4.14676 0.583252 2.76901 1.15393 1.75319 2.16976C0.73737 3.18558 0.166687 4.56333 0.166687 5.99992C0.166687 7.43651 0.73737 8.81426 1.75319 9.83008C2.76901 10.8459 4.14676 11.4166 5.58335 11.4166H8.83335C9.12067 11.4166 9.39622 11.3024 9.59939 11.0993C9.80255 10.8961 9.91669 10.6206 9.91669 10.3333C9.91669 10.0459 9.80255 9.77038 9.59939 9.56722C9.39622 9.36405 9.12067 9.24992 8.83335 9.24992ZM16.4167 0.583252H13.1667C12.8794 0.583252 12.6038 0.697389 12.4007 0.900553C12.1975 1.10372 12.0834 1.37927 12.0834 1.66659C12.0834 1.9539 12.1975 2.22945 12.4007 2.43262C12.6038 2.63578 12.8794 2.74992 13.1667 2.74992H16.4167C17.2786 2.74992 18.1053 3.09233 18.7148 3.70182C19.3243 4.31131 19.6667 5.13796 19.6667 5.99992C19.6667 6.86187 19.3243 7.68852 18.7148 8.29802C18.1053 8.90751 17.2786 9.24992 16.4167 9.24992H13.1667C12.8794 9.24992 12.6038 9.36405 12.4007 9.56722C12.1975 9.77038 12.0834 10.0459 12.0834 10.3333C12.0834 10.6206 12.1975 10.8961 12.4007 11.0993C12.6038 11.3024 12.8794 11.4166 13.1667 11.4166H16.4167C17.8533 11.4166 19.231 10.8459 20.2468 9.83008C21.2627 8.81426 21.8334 7.43651 21.8334 5.99992C21.8334 4.56333 21.2627 3.18558 20.2468 2.16976C19.231 1.15393 17.8533 0.583252 16.4167 0.583252Z" fill="white"/>
</svg>
