<svg width="24" height="24" viewBox="0 0 24 24" fill="none" xmlns="http://www.w3.org/2000/svg">
<path d="M21 21C20.7348 21 20.4804 20.8946 20.2929 20.7071C20.1054 20.5196 20 20.2652 20 20V16H16C15.7348 16 15.4804 15.8946 15.2929 15.7071C15.1054 15.5196 15 15.2652 15 15C15 14.7348 15.1054 14.4804 15.2929 14.2929C15.4804 14.1054 15.7348 14 16 14H21C21.2652 14 21.5196 14.1054 21.7071 14.2929C21.8946 14.4804 22 14.7348 22 15V20C22 20.2652 21.8946 20.5196 21.7071 20.7071C21.5196 20.8946 21.2652 21 21 21ZM8 10H3C2.73478 10 2.48043 9.89464 2.29289 9.70711C2.10536 9.51957 2 9.26522 2 9V4C2 3.73478 2.10536 3.48043 2.29289 3.29289C2.48043 3.10536 2.73478 3 3 3C3.26522 3 3.51957 3.10536 3.70711 3.29289C3.89464 3.48043 4 3.73478 4 4V8H8C8.26522 8 8.51957 8.10536 8.70711 8.29289C8.89464 8.48043 9 8.73478 9 9C9 9.26522 8.89464 9.51957 8.70711 9.70711C8.51957 9.89464 8.26522 10 8 10Z" fill="white"/>
<path d="M12 22C9.53971 22.0004 7.16561 21.0939 5.33178 19.4537C3.49794 17.8136 2.33308 15.555 2.05999 13.11C2.04554 12.9786 2.0571 12.8458 2.09401 12.7189C2.13092 12.592 2.19245 12.4737 2.2751 12.3706C2.44201 12.1625 2.68477 12.0291 2.94999 12C3.2152 11.9708 3.48115 12.0482 3.68931 12.2151C3.89748 12.382 4.03081 12.6247 4.05999 12.89C4.25765 14.6927 5.06194 16.3747 6.34099 17.6603C7.62004 18.946 9.29795 19.7589 11.0996 19.9658C12.9013 20.1727 14.7198 19.7613 16.257 18.7991C17.7942 17.8369 18.9588 16.3809 19.56 14.67C19.5975 14.5384 19.6616 14.416 19.7482 14.3102C19.8349 14.2044 19.9424 14.1176 20.064 14.055C20.1856 13.9924 20.3188 13.9554 20.4552 13.9463C20.5917 13.9372 20.7286 13.9562 20.8574 14.0021C20.9862 14.048 21.1042 14.1199 21.2042 14.2132C21.3042 14.3066 21.3839 14.4194 21.4385 14.5448C21.4931 14.6702 21.5214 14.8055 21.5217 14.9422C21.5219 15.079 21.4941 15.2144 21.44 15.34C20.7489 17.2903 19.4698 18.9782 17.779 20.1711C16.0883 21.3639 14.0692 22.0029 12 22ZM20.94 12C20.6928 12.0015 20.4538 11.9113 20.2691 11.747C20.0844 11.5826 19.9672 11.3557 19.94 11.11C19.7335 9.31589 18.926 7.64446 17.649 6.36756C16.3719 5.09066 14.7004 4.28341 12.9063 4.07711C11.1122 3.87081 9.30113 4.27761 7.76759 5.23133C6.23404 6.18505 5.06831 7.62958 4.45999 9.32996C4.42249 9.46148 4.35842 9.58392 4.27173 9.6897C4.18504 9.79548 4.07757 9.88235 3.95597 9.94494C3.83437 10.0075 3.70122 10.0445 3.56476 10.0536C3.4283 10.0627 3.29142 10.0437 3.16259 9.99779C3.03377 9.95188 2.91573 9.88003 2.81577 9.78668C2.71581 9.69334 2.63607 9.58048 2.58146 9.45509C2.52686 9.3297 2.49855 9.19444 2.4983 9.05768C2.49804 8.92091 2.52585 8.78555 2.57999 8.65996C3.33292 6.52403 4.78858 4.70694 6.70873 3.50607C8.62889 2.30519 10.8998 1.79168 13.1498 2.04955C15.3998 2.30743 17.4957 3.32142 19.0944 4.92559C20.693 6.52975 21.6998 8.62907 21.95 10.88C21.9781 11.1423 21.9014 11.4052 21.7365 11.6112C21.5717 11.8173 21.3321 11.9498 21.07 11.98L20.94 12Z" fill="white"/>
</svg>
