<svg width="47" height="47" viewBox="0 0 47 47" fill="none" xmlns="http://www.w3.org/2000/svg">
<g clip-path="url(#clip0_414_92)">
<path d="M12.0241 23.2259L6.57997 28.6897C6.20788 29.0813 6.20788 29.6884 6.57997 30.0801L12.0241 35.5438C12.6312 36.1705 13.6887 35.7201 13.6887 34.8584V31.3334H25.4583C26.5354 31.3334 27.4166 30.4522 27.4166 29.3751C27.4166 28.298 26.5354 27.4167 25.4583 27.4167H13.6887V23.9113C13.6887 23.0301 12.6312 22.5992 12.0241 23.2259ZM40.4395 16.9397L34.9954 11.4759C34.3883 10.8492 33.3308 11.2997 33.3308 12.1613V15.6667H21.5416C20.4646 15.6667 19.5833 16.548 19.5833 17.6251C19.5833 18.7022 20.4646 19.5834 21.5416 19.5834H33.3112V23.0888C33.3112 23.9701 34.3687 24.4009 34.9758 23.7742L40.42 18.3105C40.8116 17.9384 40.8116 17.3117 40.4395 16.9397Z" fill="white"/>
</g>
<defs>
<clipPath id="clip0_414_92">
<rect width="47" height="47" fill="white"/>
</clipPath>
</defs>
</svg>
