<svg width="49" height="49" viewBox="0 0 49 49" fill="none" xmlns="http://www.w3.org/2000/svg">
<path d="M38.1542 13.0649C34.4562 9.57705 29.6081 7.65625 24.5 7.65625C24.3989 7.65625 24.2977 7.67003 24.1967 7.67141C24.1953 7.66666 24.1951 7.661 24.1938 7.65625C23.1831 4.07313 19.9216 1.53125 16.0781 1.53125C11.4384 1.53125 7.65625 5.31344 7.65625 9.95312C7.65625 11.1934 8.14625 12.7706 9.17219 14.8531C9.17571 14.86 9.17969 14.8677 9.18321 14.8746C6.22775 18.4277 4.59375 22.8835 4.59375 27.5625C4.59375 33.4886 7.20009 39.0581 11.7386 42.8369C15.2886 45.8239 19.821 47.4688 24.5 47.4688C35.476 47.4688 44.4062 38.5393 44.4062 27.5625C44.4062 22.1022 42.1273 16.8183 38.1542 13.0649ZM16.0781 4.59375C18.8497 4.59375 21.1312 6.66094 21.4069 9.37125C21.4222 9.555 21.4375 9.75406 21.4375 9.95312C21.4375 10.2079 21.3919 10.5067 21.3076 10.8408C21.1614 11.4208 20.8815 12.1223 20.5357 12.8757C20.4823 12.9917 20.4439 13.0962 20.3866 13.2151C20.3587 13.2733 20.3224 13.3376 20.2937 13.3963C19.3524 15.3206 17.9689 17.5639 16.6384 19.528C16.4522 19.8026 16.2646 20.083 16.0821 20.3443C15.5636 19.5986 14.9292 18.6592 14.2804 17.6354C14.2755 17.6276 14.2708 17.6209 14.2659 17.6131C13.6119 16.5802 12.9437 15.4615 12.3636 14.3666C12.3589 14.3576 12.3514 14.3507 12.3463 14.3417C10.9331 11.6628 10.7188 10.4417 10.7188 9.95312C10.7188 6.99781 13.1228 4.59375 16.0781 4.59375ZM7.65625 27.5625C7.65625 24.0213 8.74987 20.6238 10.7673 17.7971C10.8889 17.9946 11.0106 18.1772 11.1322 18.375C11.1934 18.4822 11.2547 18.5894 11.3313 18.6966C11.3481 18.7247 11.3659 18.7509 11.3829 18.7791C11.4576 18.8995 11.5308 19.0171 11.6053 19.1353C11.7958 19.4429 11.9875 19.755 12.1734 20.0441C12.1734 20.0441 12.1888 20.0441 12.1888 20.0594C12.4184 20.4116 12.6481 20.7484 12.8625 21.07C13.0769 21.3916 13.2913 21.6978 13.475 21.9734C13.6405 22.2027 13.7851 22.4017 13.9207 22.5974C13.9491 22.6374 13.9837 22.6878 14.0111 22.726V22.7391C14.1468 22.924 14.2565 23.0704 14.3564 23.2076C14.3924 23.2574 14.4305 23.311 14.463 23.3557C14.476 23.3747 14.4914 23.3937 14.5009 23.4128C14.5283 23.4465 14.5466 23.4719 14.5705 23.5028C14.7205 23.7082 14.8308 23.8572 14.8519 23.8855L14.8531 23.8875L14.8596 23.8929C15.1483 24.2748 15.5993 24.5 16.0781 24.5C16.3201 24.5 16.5542 24.4427 16.7643 24.3375C16.8802 24.2792 16.9649 24.1745 17.0632 24.0882C17.1426 24.0187 17.2396 23.9729 17.3044 23.887C17.6777 23.388 18.5173 22.2437 19.493 20.7892C19.7168 20.4572 19.9459 20.1143 20.182 19.7533C20.2293 19.6717 20.2832 19.5897 20.3326 19.5081C21.3678 17.8907 22.4492 16.0483 23.2526 14.2982C23.2732 14.2539 23.3007 14.208 23.3209 14.1641C23.4053 13.9592 23.493 13.759 23.5741 13.5617C23.6834 13.2998 23.7809 13.044 23.8737 12.7901C23.8927 12.7385 23.9146 12.683 23.9334 12.6328C23.9365 12.625 23.9382 12.618 23.9412 12.6102C23.9723 12.5219 24.0033 12.4341 24.032 12.3471C24.0492 12.2947 24.0703 12.2378 24.0866 12.1886C24.1402 12.0232 24.1803 11.8661 24.2241 11.7069C24.2398 11.6485 24.2599 11.5877 24.2746 11.5302C24.3365 11.2872 24.3844 11.0519 24.4188 10.8239C24.4242 10.79 24.4352 10.7524 24.4401 10.7188C24.4596 10.7188 24.4806 10.7188 24.5 10.7188C28.6821 10.7188 32.6489 12.2514 35.7343 15.0202C36.7226 18.7411 36.2928 22.4391 34.5099 25.2229C32.8291 27.8487 30.0373 29.5153 26.435 30.0439C20.946 30.8542 16.1535 34.0688 12.4579 39.3291C9.39192 36.2027 7.65625 32.0037 7.65625 27.5625ZM24.5 44.4062C21.0046 44.4062 17.6115 43.3206 14.7959 41.3274C18.0473 36.5721 22.1018 33.7797 26.8822 33.0736C31.3862 32.4133 34.9153 30.2691 37.0895 26.8747C38.4547 24.7429 39.1862 22.2103 39.2931 19.5332C40.6173 21.9817 41.3438 24.7424 41.3438 27.5625C41.3438 36.8501 33.7876 44.4062 24.5 44.4062Z" fill="white"/>
<path d="M16.0781 12.25C17.3467 12.25 18.375 11.2217 18.375 9.95312C18.375 8.6846 17.3467 7.65625 16.0781 7.65625C14.8096 7.65625 13.7812 8.6846 13.7812 9.95312C13.7812 11.2217 14.8096 12.25 16.0781 12.25Z" fill="white"/>
</svg>
