<svg width="46" height="46" viewBox="0 0 46 46" fill="none" xmlns="http://www.w3.org/2000/svg">
<g clip-path="url(#clip0_442_804)">
<path d="M7.66667 24.9168C8.72521 24.9168 9.58333 24.0587 9.58333 23.0002C9.58333 21.9416 8.72521 21.0835 7.66667 21.0835C6.60812 21.0835 5.75 21.9416 5.75 23.0002C5.75 24.0587 6.60812 24.9168 7.66667 24.9168Z" fill="white"/>
<path d="M38.4487 21.0835H15.2187C14.2236 21.0835 13.417 21.8901 13.417 22.8852V23.1152C13.417 24.1102 14.2236 24.9168 15.2187 24.9168H38.4487C39.4437 24.9168 40.2503 24.1102 40.2503 23.1152V22.8852C40.2503 21.8901 39.4437 21.0835 38.4487 21.0835Z" fill="white"/>
<path d="M38.4483 30.6665H7.55167C6.55663 30.6665 5.75 31.4731 5.75 32.4682V32.6982C5.75 33.6932 6.55663 34.4998 7.55167 34.4998H38.4483C39.4434 34.4998 40.25 33.6932 40.25 32.6982V32.4682C40.25 31.4731 39.4434 30.6665 38.4483 30.6665Z" fill="white"/>
<path d="M38.4483 11.5H7.55167C6.55663 11.5 5.75 12.3066 5.75 13.3017V13.5317C5.75 14.5267 6.55663 15.3333 7.55167 15.3333H38.4483C39.4434 15.3333 40.25 14.5267 40.25 13.5317V13.3017C40.25 12.3066 39.4434 11.5 38.4483 11.5Z" fill="white"/>
</g>
<defs>
<clipPath id="clip0_442_804">
<rect width="46" height="46" fill="white"/>
</clipPath>
</defs>
</svg>
