<svg width="33" height="33" viewBox="0 0 33 33" fill="none" xmlns="http://www.w3.org/2000/svg">
<path d="M27.5447 27.4931H5.45532C4.29335 27.4917 3.17935 27.0295 2.35771 26.2079C1.53607 25.3862 1.07387 24.2722 1.07251 23.1103V9.88965C1.07387 8.72767 1.53607 7.61368 2.35771 6.79204C3.17935 5.9704 4.29335 5.5082 5.45532 5.50684H27.5447C28.7067 5.5082 29.8207 5.9704 30.6423 6.79204C31.4639 7.61368 31.9261 8.72767 31.9275 9.88965V23.1103C31.9261 24.2722 31.4639 25.3862 30.6423 26.2079C29.8207 27.0295 28.7067 27.4917 27.5447 27.4931ZM5.45532 7.05371C4.70318 7.05371 3.98185 7.3525 3.45001 7.88434C2.91817 8.41618 2.61938 9.13751 2.61938 9.88965V23.1103C2.61938 23.8624 2.91817 24.5837 3.45001 25.1156C3.98185 25.6474 4.70318 25.9462 5.45532 25.9462H27.5447C28.2968 25.9462 29.0182 25.6474 29.55 25.1156C30.0819 24.5837 30.3806 23.8624 30.3806 23.1103V9.88965C30.3806 9.13751 30.0819 8.41618 29.55 7.88434C29.0182 7.3525 28.2968 7.05371 27.5447 7.05371H5.45532Z" fill="white"/>
<path d="M16.5 19.6354C15.5458 19.6369 14.6172 19.3273 13.8548 18.7537L1.81496 9.64773C1.7299 9.58802 1.65773 9.51179 1.60279 9.42358C1.54784 9.33537 1.51123 9.23698 1.49515 9.13431C1.47907 9.03163 1.48385 8.92677 1.5092 8.82598C1.53455 8.7252 1.57996 8.63055 1.6427 8.5477C1.70544 8.46485 1.78424 8.3955 1.87439 8.34378C1.96453 8.29206 2.06417 8.25904 2.16736 8.24669C2.27055 8.23434 2.37518 8.24291 2.47498 8.2719C2.57478 8.30088 2.66772 8.34968 2.74824 8.41538L14.7881 17.5316C15.2825 17.9007 15.883 18.1001 16.5 18.1001C17.117 18.1001 17.7174 17.9007 18.2118 17.5316L30.2517 8.41538C30.3322 8.34968 30.4251 8.30088 30.5249 8.2719C30.6248 8.24291 30.7294 8.23434 30.8326 8.24669C30.9358 8.25904 31.0354 8.29206 31.1255 8.34378C31.2157 8.3955 31.2945 8.46485 31.3572 8.5477C31.42 8.63055 31.4654 8.7252 31.4907 8.82598C31.5161 8.92677 31.5209 9.03163 31.5048 9.13431C31.4887 9.23698 31.4521 9.33537 31.3971 9.42358C31.3422 9.51179 31.27 9.58802 31.185 9.64773L19.1451 18.7537C18.3827 19.3273 17.4541 19.6369 16.5 19.6354Z" fill="white"/>
<path d="M2.15006 25.3381C1.9932 25.3384 1.83997 25.2909 1.71071 25.202C1.58145 25.1131 1.48227 24.9871 1.42633 24.8405C1.3704 24.6939 1.36034 24.5338 1.39751 24.3814C1.43468 24.229 1.51731 24.0915 1.63444 23.9872L11.1219 15.5258C11.2751 15.389 11.4763 15.3187 11.6813 15.3303C11.8863 15.3419 12.0783 15.4345 12.2151 15.5877C12.3518 15.7408 12.4221 15.942 12.4105 16.147C12.3989 16.352 12.3063 16.544 12.1532 16.6808L2.66569 25.1422C2.52479 25.2704 2.34054 25.3404 2.15006 25.3381ZM30.8498 25.3381C30.6593 25.3404 30.475 25.2704 30.3341 25.1422L20.8466 16.6808C20.6935 16.544 20.6009 16.352 20.5893 16.147C20.5777 15.942 20.648 15.7408 20.7847 15.5877C20.9215 15.4345 21.1135 15.3419 21.3185 15.3303C21.5235 15.3187 21.7247 15.389 21.8779 15.5258L31.3602 23.9872C31.4773 24.0915 31.56 24.229 31.5971 24.3814C31.6343 24.5338 31.6243 24.6939 31.5683 24.8405C31.5124 24.9871 31.4132 25.1131 31.2839 25.202C31.1547 25.2909 31.0015 25.3384 30.8446 25.3381H30.8498Z" fill="white"/>
</svg>
