<svg width="23" height="23" viewBox="0 0 23 23" fill="none" xmlns="http://www.w3.org/2000/svg">
<path d="M15.4425 8.9039C15.9715 8.3749 16.4967 7.14056 14.2925 8.6394C12.2335 10.0565 10.1605 11.4531 8.0739 12.8292C7.75615 12.9729 7.41264 13.0509 7.06401 13.0585C6.71537 13.066 6.36879 13.0031 6.04511 12.8733C4.72261 12.4766 3.17873 11.9476 3.17873 11.9476C3.17873 11.9476 2.12457 11.2854 3.92911 10.58C3.92911 10.58 11.5584 7.44915 14.2044 6.3461C15.2183 5.90527 18.6577 4.4946 18.6577 4.4946C18.6577 4.4946 20.2457 3.87648 20.1134 5.37627C20.0694 5.99344 19.7167 8.15544 19.364 10.4919C18.8341 13.7991 18.261 17.4158 18.261 17.4158C18.261 17.4158 18.1728 18.4297 17.4234 18.6061C16.6212 18.5925 15.846 18.3134 15.2192 17.8126C15.0429 17.6803 11.912 15.6956 10.7649 14.7258C10.6482 14.6467 10.5534 14.5394 10.4893 14.4139C10.4252 14.2884 10.3939 14.1487 10.3983 14.0078C10.4027 13.8669 10.4427 13.7295 10.5145 13.6082C10.5863 13.4869 10.6876 13.3858 10.809 13.3141C12.3823 11.8747 13.9271 10.4043 15.4425 8.9039Z" fill="white"/>
</svg>
