<svg width="24" height="24" viewBox="0 0 24 24" fill="none" xmlns="http://www.w3.org/2000/svg">
<path d="M20.4705 2.00014H3.53055C3.34013 1.9975 3.15105 2.03239 2.97411 2.10282C2.79718 2.17326 2.63585 2.27786 2.49934 2.41065C2.36284 2.54344 2.25383 2.70182 2.17854 2.87675C2.10325 3.05167 2.06316 3.23972 2.06055 3.43014V20.5701C2.06316 20.7606 2.10325 20.9486 2.17854 21.1235C2.25383 21.2985 2.36284 21.4568 2.49934 21.5896C2.63585 21.7224 2.79718 21.827 2.97411 21.8975C3.15105 21.9679 3.34013 22.0028 3.53055 22.0001H20.4705C20.661 22.0028 20.85 21.9679 21.027 21.8975C21.2039 21.827 21.3652 21.7224 21.5017 21.5896C21.6383 21.4568 21.7473 21.2985 21.8226 21.1235C21.8978 20.9486 21.9379 20.7606 21.9405 20.5701V3.43014C21.9379 3.23972 21.8978 3.05167 21.8226 2.87675C21.7473 2.70182 21.6383 2.54344 21.5017 2.41065C21.3652 2.27786 21.2039 2.17326 21.027 2.10282C20.85 2.03239 20.661 1.9975 20.4705 2.00014ZM8.09055 18.7401H5.09055V9.74014H8.09055V18.7401ZM6.59055 8.48014C6.17681 8.48014 5.78002 8.31578 5.48746 8.02323C5.1949 7.73067 5.03055 7.33388 5.03055 6.92014C5.03055 6.5064 5.1949 6.10961 5.48746 5.81705C5.78002 5.5245 6.17681 5.36014 6.59055 5.36014C6.81024 5.33522 7.03272 5.35699 7.24342 5.42402C7.45412 5.49105 7.64829 5.60183 7.8132 5.7491C7.97812 5.89637 8.11007 6.07682 8.20042 6.27862C8.29076 6.48043 8.33746 6.69904 8.33746 6.92014C8.33746 7.14124 8.29076 7.35985 8.20042 7.56166C8.11007 7.76346 7.97812 7.94391 7.8132 8.09118C7.64829 8.23845 7.45412 8.34923 7.24342 8.41626C7.03272 8.48329 6.81024 8.50505 6.59055 8.48014ZM18.9105 18.7401H15.9105V13.9101C15.9105 12.7001 15.4805 11.9101 14.3905 11.9101C14.0532 11.9126 13.7247 12.0184 13.4494 12.2133C13.174 12.4082 12.965 12.6828 12.8505 13.0001C12.7723 13.2352 12.7384 13.4827 12.7505 13.7301V18.7301H9.75055C9.75055 18.7301 9.75055 10.5501 9.75055 9.73014H12.7505V11.0001C13.0231 10.5272 13.4195 10.1377 13.897 9.87334C14.3745 9.60902 14.9151 9.47999 15.4605 9.50014C17.4605 9.50014 18.9105 10.7901 18.9105 13.5601V18.7401Z" fill="white"/>
</svg>
