<svg width="28" height="28" viewBox="0 0 28 28" fill="none" xmlns="http://www.w3.org/2000/svg">
<path d="M22.6799 15.1669C22.4232 15.1669 22.1549 15.0853 21.8982 15.0269C21.3784 14.9124 20.8677 14.7603 20.3699 14.5719C19.8286 14.375 19.2337 14.3852 18.6996 14.6006C18.1654 14.816 17.7298 15.2213 17.4765 15.7386L17.2199 16.2636C16.0835 15.6315 15.0394 14.8464 14.1165 13.9303C13.2004 13.0074 12.4153 11.9633 11.7832 10.8269L12.2732 10.5003C12.7905 10.247 13.1958 9.81137 13.4112 9.27723C13.6265 8.74308 13.6368 8.14815 13.4399 7.60692C13.2546 7.10808 13.1026 6.59752 12.9849 6.07859C12.9265 5.82192 12.8799 5.55359 12.8449 5.28525C12.7032 4.46348 12.2728 3.71929 11.6311 3.1867C10.9894 2.65411 10.1787 2.36813 9.34487 2.38025H5.84487C5.34208 2.37553 4.84417 2.4792 4.38504 2.68421C3.9259 2.88921 3.51634 3.19073 3.18421 3.56825C2.85208 3.94577 2.6052 4.39041 2.46036 4.87192C2.31552 5.35343 2.27613 5.86049 2.34487 6.35859C2.9664 11.2462 5.19857 15.7874 8.6888 19.265C12.179 22.7425 16.7284 24.9582 21.6182 25.5619H22.0615C22.9219 25.5632 23.7525 25.2475 24.3949 24.6753C24.764 24.3451 25.0588 23.9405 25.2599 23.488C25.461 23.0355 25.5638 22.5454 25.5615 22.0503V18.5503C25.5473 17.7399 25.2521 16.9596 24.7266 16.3425C24.2011 15.7255 23.4777 15.31 22.6799 15.1669ZM23.2632 22.1669C23.263 22.3326 23.2275 22.4963 23.1591 22.6471C23.0907 22.798 22.991 22.9326 22.8665 23.0419C22.7366 23.1551 22.5842 23.2396 22.4193 23.2898C22.2545 23.3401 22.0809 23.355 21.9099 23.3336C17.5406 22.7734 13.4822 20.7745 10.3747 17.6523C7.26727 14.53 5.28769 10.4621 4.74821 6.09025C4.72964 5.91936 4.74591 5.74647 4.79604 5.58204C4.84617 5.41761 4.92912 5.26506 5.03987 5.13359C5.1492 5.00914 5.28378 4.9094 5.43465 4.84101C5.58552 4.77261 5.74922 4.73713 5.91487 4.73692H9.41487C9.68618 4.73088 9.9511 4.81961 10.164 4.98784C10.377 5.15606 10.5246 5.39325 10.5815 5.65859C10.6282 5.97748 10.6865 6.29248 10.7565 6.60359C10.8913 7.21859 11.0707 7.82296 11.2932 8.41192L9.65987 9.17025C9.52022 9.23433 9.3946 9.32536 9.29022 9.43812C9.18585 9.55087 9.10477 9.68314 9.05166 9.82731C8.99854 9.97149 8.97442 10.1247 8.9807 10.2783C8.98697 10.4318 9.0235 10.5826 9.08821 10.7219C10.7673 14.3185 13.6583 17.2095 17.2549 18.8886C17.5389 19.0053 17.8575 19.0053 18.1415 18.8886C18.287 18.8365 18.4207 18.7561 18.5349 18.652C18.6491 18.5478 18.7414 18.422 18.8065 18.2819L19.5299 16.6486C20.133 16.8643 20.7486 17.0435 21.3732 17.1853C21.6843 17.2553 21.9993 17.3136 22.3182 17.3603C22.5835 17.4172 22.8207 17.5648 22.989 17.7778C23.1572 17.9907 23.2459 18.2556 23.2399 18.5269L23.2632 22.1669Z" fill="white"/>
</svg>
